<?xml version="1.0" standalone="no"?>
<!DOCTYPE svg PUBLIC "-//W3C//DTD SVG 20010904//EN"
 "http://www.w3.org/TR/2001/REC-SVG-20010904/DTD/svg10.dtd">
<svg version="1.0" xmlns="http://www.w3.org/2000/svg"
 width="280.000000pt" height="280.000000pt" viewBox="0 0 280.000000 280.000000"
 preserveAspectRatio="xMidYMid meet">
<metadata>
Created by potrace 1.14, written by Peter Selinger 2001-2017
</metadata>
<g transform="translate(0.000000,280.000000) scale(0.100000,-0.100000)"
fill="#000000" stroke="none">
<path d="M664 2688 c0 -18 7 -39 16 -46 13 -11 12 -11 -7 -3 -29 14 -73 10
-73 -7 0 -7 5 -10 11 -7 6 4 5 -2 -3 -14 -11 -18 -33 -26 -60 -22 -3 0 -6 -40
-6 -89 l0 -90 29 0 c26 0 29 -4 29 -30 0 -27 3 -30 30 -30 27 0 30 -3 30 -30
0 -25 4 -30 25 -30 21 0 25 -5 25 -30 0 -27 3 -30 30 -30 27 0 30 -3 30 -30 0
-27 3 -30 30 -30 27 0 30 -3 30 -30 0 -27 3 -30 30 -30 25 0 30 -4 30 -25 0
-21 5 -25 30 -25 l30 0 0 -60 0 -60 30 0 c27 0 30 -3 30 -30 0 -27 3 -30 30
-30 l30 0 0 -60 0 -60 30 0 30 0 0 -90 0 -90 -30 0 c-27 0 -30 -3 -30 -30 0
-27 -3 -30 -30 -30 -27 0 -30 -3 -30 -30 0 -27 -3 -30 -30 -30 -27 0 -30 -3
-30 -30 l0 -30 -60 0 -60 0 0 -30 0 -30 -60 0 -60 0 0 -30 c0 -30 -1 -30 -55
-30 -54 0 -55 0 -55 -30 l0 -30 -60 0 -60 0 0 -30 0 -30 -60 0 -60 0 0 -30 c0
-27 -3 -30 -30 -30 -27 0 -30 -3 -30 -30 0 -27 -3 -30 -30 -30 -27 0 -30 -3
-30 -30 0 -27 -3 -30 -30 -30 -27 0 -30 -3 -30 -30 0 -27 -3 -30 -30 -30 l-30
0 0 -60 0 -60 -35 0 -35 0 0 -175 0 -175 35 0 35 0 0 -60 0 -60 30 0 c27 0 30
-3 30 -30 0 -27 3 -30 30 -30 27 0 30 -3 30 -30 l0 -30 60 0 60 0 0 -30 0 -30
90 0 90 0 0 -35 0 -35 655 0 655 0 0 35 0 35 90 0 90 0 0 30 c0 30 1 30 55 30
54 0 55 0 55 30 0 27 3 30 30 30 27 0 30 3 30 30 0 27 3 30 30 30 l30 0 0 60
0 60 30 0 30 0 0 145 0 145 -30 0 -30 0 0 60 0 60 -30 0 c-27 0 -30 3 -30 30
0 27 -3 30 -30 30 -27 0 -30 3 -30 30 0 25 -4 30 -25 30 -21 0 -25 5 -25 30 0
27 -3 30 -30 30 -27 0 -30 3 -30 30 0 27 -3 30 -30 30 -27 0 -30 3 -30 30 0
27 3 30 30 30 27 0 30 3 30 30 l0 30 295 0 295 0 0 30 c0 27 3 30 30 30 27 0
30 3 30 30 0 28 3 30 35 30 l35 0 0 119 0 120 -37 3 c-35 3 -38 5 -35 31 3 24
0 27 -27 27 -28 0 -31 3 -31 30 l0 30 -180 0 -180 0 0 -30 0 -30 -85 0 -85 0
0 -30 0 -30 -60 0 -60 0 0 -30 c0 -27 -3 -30 -30 -30 -27 0 -30 -3 -30 -30 l0
-30 -60 0 -60 0 0 60 0 60 30 0 30 0 0 60 0 60 30 0 c27 0 30 3 30 30 0 27 3
30 30 30 27 0 30 3 30 30 0 27 3 30 30 30 27 0 30 3 30 30 0 30 1 30 55 30 54
0 55 0 55 30 l0 30 60 0 c60 0 60 0 60 30 0 28 1 29 57 32 56 3 58 4 63 33 4
25 9 30 31 27 l27 -3 -1 115 c0 64 -4 116 -9 116 -5 0 -7 -4 -3 -9 3 -5 0 -13
-6 -17 -8 -4 -9 -3 -5 5 10 16 -21 26 -39 11 -8 -7 -12 -17 -8 -23 4 -6 1 -7
-6 -3 -9 6 -9 12 3 25 22 25 21 73 -1 70 -42 -4 -49 1 -47 31 1 17 -3 30 -8
30 -6 0 -8 -9 -5 -20 3 -11 1 -18 -4 -14 -5 3 -9 12 -9 20 0 20 -18 18 -23 -3
-4 -17 -5 -17 -6 0 -1 11 -9 17 -24 17 -31 0 -39 -10 -24 -29 11 -14 10 -14
-5 -2 -10 7 -15 17 -12 22 3 5 -33 9 -80 9 -71 0 -86 -3 -86 -16 0 -8 5 -12
11 -9 6 4 5 -2 -3 -14 -11 -17 -23 -21 -70 -21 -58 0 -58 0 -58 -30 0 -27 -3
-30 -30 -30 -27 0 -30 -3 -30 -30 0 -27 -3 -30 -30 -30 -27 0 -30 -3 -30 -30
0 -27 -3 -30 -30 -30 -27 0 -30 -3 -30 -30 0 -27 -3 -30 -30 -30 -25 0 -30 -4
-30 -25 0 -21 -5 -25 -30 -25 l-30 0 0 -60 0 -60 -30 0 -30 0 0 -60 0 -60 -30
0 -30 0 0 -60 0 -60 -30 0 -30 0 0 60 0 60 -30 0 -30 0 0 120 0 120 -30 0 -30
0 0 85 0 85 -30 0 -30 0 0 60 0 60 -30 0 -30 0 0 60 0 60 -30 0 c-27 0 -30 3
-30 30 0 27 -3 30 -30 30 -27 0 -30 3 -30 30 0 28 -3 30 -37 31 -21 1 -45 1
-53 0 -13 -2 -13 -1 0 8 8 5 18 7 22 5 4 -3 7 6 6 20 -1 15 -8 26 -16 26 -7 0
-12 -7 -10 -16 2 -10 -3 -18 -10 -20 -7 -1 -8 0 -3 2 6 3 7 12 4 20 -5 13 -7
13 -14 2 -7 -10 -9 -10 -9 0 0 6 -7 12 -15 12 -20 0 -19 -10 3 -27 15 -13 15
-13 -5 -3 -13 6 -23 15 -23 20 0 6 -12 10 -26 10 -14 0 -23 -4 -20 -9 7 -11
-55 -7 -74 4 -21 13 -40 15 -41 4 -1 -5 -2 -13 -3 -18 0 -5 -5 -13 -10 -18 -5
-4 -6 -3 -3 3 4 7 1 14 -7 17 -24 9 -16 54 12 66 13 7 27 9 30 6 3 -3 -1 -5
-8 -5 -17 0 -5 -13 15 -16 7 -1 16 5 20 14 9 23 24 -3 20 -34 -2 -19 2 -23 18
-20 12 1 23 8 25 14 2 7 -3 10 -12 6 -21 -8 -21 19 0 36 8 8 14 9 13 4 -4 -22
2 -35 13 -28 7 4 8 3 4 -4 -4 -7 -3 -12 2 -12 5 0 9 12 9 28 l-2 27 -81 0
c-46 0 -80 -3 -78 -7 3 -5 0 -8 -5 -8 -6 0 -11 5 -11 10 0 6 -4 10 -9 10 -4 0
-7 -16 -5 -36 2 -32 1 -34 -11 -17 -9 12 -10 20 -3 24 6 4 7 12 4 18 -13 20
-22 11 -22 -21z m-18 -63 c-1 -8 -5 -17 -8 -21 -5 -4 -4 16 1 34 3 9 9 -1 7
-13z m59 -5 c-3 -5 -12 -10 -18 -10 -7 0 -6 4 3 10 19 12 23 12 15 0z m78 -7
c-6 -15 -4 -16 8 -6 13 10 16 10 16 -1 0 -8 -6 -13 -13 -12 -19 3 -27 13 -19
25 10 17 15 13 8 -6z m122 8 c3 -5 0 -13 -6 -17 -8 -4 -9 -3 -5 4 11 19 -5 14
-21 -5 -13 -16 -13 -16 -3 5 11 23 25 28 35 13z m-74 -24 c-10 -9 -11 -8 -5 6
3 10 9 15 12 12 3 -3 0 -11 -7 -18z m-68 -2 c4 -8 3 -16 -1 -19 -4 -3 -9 4 -9
15 -2 23 3 25 10 4z m176 -8 c0 -9 -2 -8 -6 1 -2 6 -10 9 -15 6 -7 -4 -8 -2
-4 5 9 13 26 5 25 -12z m-254 4 c3 -5 2 -12 -3 -15 -5 -3 -9 1 -9 9 0 17 3 19
12 6z m40 -21 c10 -11 16 -20 13 -20 -3 0 -13 9 -23 20 -10 11 -16 20 -13 20
3 0 13 -9 23 -20z m318 -5 c-3 -9 -8 -14 -10 -11 -3 3 -2 9 2 15 9 16 15 13 8
-4z m-73 -25 c0 -5 -2 -10 -4 -10 -3 0 -8 5 -11 10 -3 6 -1 10 4 10 6 0 11 -4
11 -10z m35 -9 c3 -5 2 -12 -3 -15 -5 -3 -9 1 -9 9 0 17 3 19 12 6z m65 -31
c0 -5 -2 -10 -4 -10 -3 0 -8 5 -11 10 -3 6 -1 10 4 10 6 0 11 -4 11 -10z m-60
-18 c0 -5 -7 -9 -15 -9 -8 0 -12 4 -9 9 3 4 9 8 15 8 5 0 9 -4 9 -8z m1236
-108 c1 -9 0 -13 -4 -10 -3 4 -7 14 -8 22 -1 9 0 13 4 10 3 -4 7 -14 8 -22z
m-136 6 c0 -5 -2 -10 -4 -10 -3 0 -8 5 -11 10 -3 6 -1 10 4 10 6 0 11 -4 11
-10z m99 -27 c2 -1 -5 -1 -16 0 -11 0 -20 7 -20 14 0 10 4 10 16 1 9 -7 18
-13 20 -15z m83 -1 c3 -12 -1 -18 -12 -18 -14 0 -15 4 -6 18 6 10 11 18 12 18
1 0 4 -8 6 -18z m32 -42 c-6 -6 -10 -3 -10 10 0 13 4 16 10 10 7 -7 7 -13 0
-20z m-134 -5 c0 -7 -30 -13 -34 -7 -3 4 4 9 15 9 10 1 19 0 19 -2z m95 -33
c-3 -3 -11 0 -18 7 -9 10 -8 11 6 5 10 -3 15 -9 12 -12z m76 -39 c13 -16 12
-17 -3 -4 -10 7 -18 15 -18 17 0 8 8 3 21 -13z m-571 -803 c0 -27 -3 -30 -30
-30 -27 0 -30 3 -30 30 0 27 3 30 30 30 27 0 30 -3 30 -30z"/>
<path d="M729 2688 c-7 -26 -7 -48 2 -48 5 0 7 5 4 10 -3 6 -3 10 2 11 4 0 16
2 25 4 10 2 20 -1 24 -6 9 -16 23 -10 21 10 -1 11 -6 17 -12 13 -16 -10 -34
-11 -41 -1 -5 8 -23 13 -25 7z"/>
</g>
</svg>
